
<svg class="districtMap" version="1.1" xmlns="http://www.w3.org/2000/svg" xmlns:xlink="http://www.w3.org/1999/xlink" x="0px" y="0px"
														 viewBox="0 0 880 680" xml:space="preserve" style="transform: scale(1.1);position: relative;top: -10px;left: 5px;">
														 <style>
	.districtMap>g>path{
    stroke: #fff;
    stroke-miterlimit: 17;
    fill: #FF9800;
    transition: 0.3s all;
}
.districtMap .singleDistrict.active{
    fill: #eb690c;
}
</style>
													<g id="Layer_26">
														<path class="st1" d="M68.7,412.2c-0.6-1.2-2.2-4-2-7.7c0-1.1,0.5-2.7,1.3-5.7c1.3-4.7,2.4-6.7,2.7-7.3c0.7-1.3,1.2-2.4,2.3-3.7
															c0.4-0.5,1.3-1.5,4-3.3c2.9-2,3.4-1.9,6-3.7c1.1-0.7,1.1-0.8,4.7-3.7c3.5-2.8,5.3-4.2,5.7-4.3c2.7-1,3.4,0.5,10.7,1
															c2.6,0.2,4,0.1,6.3,0c4.1-0.2,5.3-0.7,6.3-1.3c1-0.7,0.9-1,2.7-2.7c0,0,1.6-1.5,3.7-3c0.7-0.5,3.5-2.5,8-4.3c7.3-3,14.6-3.8,16-4
															c4.7-0.5,14.9-1.6,27,2.3c8.4,2.7,14,6.6,18.3,9.7c7,4.9,18.5,13.1,24.7,28c3.5,8.4,3.9,15.8,4.3,23.7c0.7,13.1-2,13.1-1.3,26.7
															c0.1,2.2,0.4,7.2-1.7,13c-0.8,2.3-1.7,4.6-3.7,6.7c-3.9,4-7.5,2.5-14.7,5.3c-8.6,3.5-7.6,7.4-14.7,9c-6,1.3-9-1.1-12.6,1.6
															c-3.3,2.4-2.2,5.4-4.8,8.4c-5.4,6.2-18.5,3.2-22,2.3c-9.1-2.1-17.5-7-26-15.3c-19.7-19.2-11.2-28.3-28.3-43
															C91.7,436.9,73.7,421.5,68.7,412.2z"/>
													</g>
													<g id="Layer_25">
														<path class="st2" d="M177.3,484.8c0.6,1-0.7,2.8-2,4.3c0.1,0.4,0.6,4.1-2,6.7c-0.3,0.3-2.1,2-4.7,2c-2,0-2.9-1.2-3.7-0.7
															c-1.2,0.9,0.4,4.8-0.7,5.3c0,0-0.1,0-0.1,0c-1,0.2-2.2-1.5-2.6-2c-0.9-1.3-1.3-2.7-1.3-2.7c0,0,3.7,6.4,1.7,9c-1.3,1.6-5,2-5,2
															c-2.2,1.3-3.7,2.7-4.7,3.7c-0.6,0.7-1.3,1.5-2,2.7c-0.8,1.5-0.7,2.1-1.3,4c-0.6,1.7-1.4,3.9-3.3,5.7c-0.8,0.7-1.7,1.5-3,1.7
															c-2.1,0.3-3-1.1-5-1c-0.4,0-1.6,0.2-3.7,2c-1.6,1.4-3.4,3.6-6.3,10c-2.1,4.6-1.9,5.3-3.3,6.7c-1.8,1.7-2.8,1.5-5.3,3.7
															c-2.4,2.1-1.9,2.8-4,4.7c-3.6,3.3-7.8,3.8-7.7,4.3c0.1,0.4,2.7,0.2,2.7,0c0-0.3-7.3,1.1-10.7-2.7c-1.6-1.8-0.9-3.2-2.7-4.3
															c-1.4-0.9-2.2-0.4-7.3-1c-2.8-0.3-3.6-0.7-4.3-1.3c-0.7-0.6-0.8-1.1-1.7-3.3c-0.2-0.5-1.2-3-2-4.7c-1.6-3.3-3.2-5.2-3-5.3
															c0.2-0.2,2.3,2,2.3,2c0,0,0,0-5-5c-2.9-0.7-4.1-0.3-4.7,0.3c-0.9,1,0,2.1-1,4c-0.9,1.7-3,3-3,3c-2.1-1-3.5-2.2-4.3-3
															c-0.2-0.2-1.3-1.3-2.3-3c-1.1-1.8-2-4-2-4c-0.8-0.6-2.3-1.9-3.3-4c-0.4-0.8-1.1-2.2-1-4c0.1-4.3,4.2-6.9,4.3-7c2-1.2,2.3-0.3,5.7-2
															c0,0,0.7-0.3,4.7-2.7c1.3-1.4,2.7-2.9,4-4.3c0.2-0.4,1.9-3.2,0.7-5.3c-0.7-1.2-2-1.7-4-2.3c-2.3-0.8-4.1-0.9-5.7-1
															c-3.5-0.3-5.8-0.5-8.3-1c-0.7-0.1-5.1-1.1-9-3c-1.1-0.6-4.4-2.2-3.3-1.7c-1.5-1.4-3.3-3.5-3.3-6c-0.1-3.4,2.8-6.6,2.7-6.7
															c-0.1-0.1-1.6,2.5-2,2.3c-0.7-0.3,3.3-12.3,4.3-12c0.5,0.1,0.3,2.6,0,2.7c-0.3,0-0.5-2.8-2.3-6.3c-1.4-2.8-2.1-2.6-2.3-4
															c-0.7-3.6,2.8-7.2,4.3-8.7c2.6-2.6,5.4-4,5.3-4c0,0-2.4,1.5-2.3,1.7c0.1,0.2,3.2-2.1,7-1.7c1.4,0.2,1.4,0.5,3.3,1
															c0.9,0.2,4.3,1,8,0c0,0,1.1-0.3,7-3.3c-1.1-1.9-2.2-3.8-3.3-5.7c-2.3-2.1-4.5-3.3-6-4c-0.6-0.3-1.9-0.8-5.3-2.3
															c-1.8-0.8-2.7-1.2-3.3-2c-0.8-1-0.9-2.1-1-4.3c-0.2-2.4-0.2-3.5,0.3-4.7c0.4-0.8,0.7-0.8,4-3.3c2.1-1.6,4.3-3.3,4.3-3.3
															c0.5-2.5,1.5-5.6,3.7-6.3c1.5-0.5,2.5,0.5,5.3,1.3c3.6,1.1,6.5,1,8.7,1c4.8-0.1,5.5-1.3,10-1c2.8,0.2,4.9,0.9,5.3,1
															c4,1.3,7.7,3.7,7.7,3.7c2.2,1.4,2.9,2.2,4,2c1.7-0.3,1.6-2.4,3.3-3c1.7-0.6,2.7,1.1,6.3,2.3c2.9,1,3.1,0.1,5.7,1
															c0.7,0.3,4.8,1.6,7,5.3c1.6,2.8,0.3,3.5,2,6.3c0.4,0.7,2.5,4.2,6.3,5.7c1.2,0.5,2.2,0.6,3.3,1.7c1,1,2,2.7,2,2.7c1-0.4,2.8-1.1,5-1
															c6.6,0.2,7.4,4.5,7.9,3.9c0.3-0.3,0.3,2.9-0.3,2.3c-1.8-2.1,2.4,1.5,1.9,1.9c-0.5,0.5,1.3-4.6,2.4,1.8c0,0.2,0,0.1-0.3,10
															c-0.1,2-0.1,3.5,0,5.7c0.1,2.2,0.2,3.9,0.7,5.7c1.4,5.5,5.4,9.2,5.7,9c0.1,0-0.1-0.4-1.3-3c-1.2-2.7-1.3-3-1.3-3
															c-0.3,0.1-0.4,8.2,4,11C171.1,485.9,176.4,483,177.3,484.8z"/>
													</g>
													<g id="Layer_23">
														<path class="st3" d="M270.3,446.9c-0.4,1.9-0.9,3.8-1.3,5.7"/>
														<path class="st4" d="M262,461.2c-1.3,0.7-7.5,0.1-9,2c-0.7,0.9-0.8,1.5-2.3,4.3c-1.2,2.2-1.7,3-2,3.7c-2.7,5.3-0.3,12.3-0.7,12.3
															c-0.3,0.1-2-7-2-7c0,0,0.2,4.1,1.7,10.3c0.3,1.4,0.6,2.6,0,3.3c0,0-0.6,0.7-6,0c-2-2.3-4-3.6-5.3-4.3c-0.4-0.2-2.1-0.8-5.3-2
															c-4.1-1.5-5-1.8-6-1.3c-0.4,0.2-1.1,1-2.7,2.7c-1.2,1.3-1.8,2-2.3,2.7c-1.1,1.4-1.1,1.7-2.3,3.7c-1.1,1.6-1.8,2.8-3,4
															c-1.7,1.7-2.1,1.5-3.3,3c-1.6,1.9-1.2,2.6-2.3,3.3c-1.6,1.1-4.1,0.7-5.7-0.3c-1.3-0.9-1.9-2.2-2.3-3c-0.6-1.4-0.4-1.7-1-4
															c-0.3-1.2-0.8-2.7-1.7-4.3c-0.6-1-1.3-2.3-2.7-3.3c-3-2.3-7-1.6-8.3-1.3c-0.9,0.2-0.4,0.2-4.3,1.3c-4.5,1.4-5.6,1.5-6.7,1
															c-1.3-0.6-1-1.3-2.7-2.3c-2.3-1.4-3.8-0.5-4.7-1.7c-1.1-1.5,0.5-4.3,0.7-4.7c0.9-1.5,1.5-1.3,2.7-3c1.4-2,0.8-2.7,2-4.7
															c1.3-2.1,2.2-1.7,3.7-3.7c2.1-2.8,0.8-4.4,2.3-5.7c1.7-1.4,3.5,0.1,10.3-0.3c1.5-0.1,2.5-0.2,3.7-0.7c1.3-0.5,3.6-1.3,4.7-3.7
															c0.7-1.6,0.5-3.1,0.3-3.7c-0.1-0.4-0.4-1.8-3-4.3c-2.7-2.7-3.9-2.7-4.7-4.3c-0.9-1.9-0.3-4,0-5c1.3-4.5,8.6-9.8,20.7-13.3
															c13-3.8,22.9-3,36.3-2c5.6,0.4,10.5,1.1,15.7,4c2.8,1.6,10.1,5.6,10.3,11.7c0.2,4.3-3.3,7.7-7.3,11.7
															C263.9,455.6,265.8,459.4,262,461.2z"/>
													</g>
													<g id="Layer_24">
														<path class="st5" d="M253.3,440.2c0.9,1,1.8,0.5,4,1.7c0.9,0.5,3.2,1.7,4,3.9c0.7,2.2-1,3.1-0.6,5.7c0,0.3,0.6,3.6,3.2,4.9
															c0.4,0.2,0.8,0.4,1.5,0.4c2,0.1,2.5-2.2,5-3c0.5-0.2,3.5-1.2,5.3,0.3c0.8,0.7,1.1,1.7,1.7,3.7c0.2,0.7,0.4,1.6,0.7,3.3
															c0.5,2.9,0.4,3,0.7,3.3c1.1,1.7,4,1.7,5.7,1.7c4.2,0,4.6-1.6,7-1c3.9,1,5.4,6,5.3,6.3c0,0,0,0,0,0c-0.2,0.2-3.4-3.2-3-3.7
															c0.5-0.7,7.3,5.6,10.3,3.7c0.9-0.6,0.6-1.3,2-5.3c1.3-3.8,1.8-3.7,2.7-6.7c0.8-2.7,1.3-6,1.3-6c-2.8-6.2-3-8.3-3-8.3
															c-0.1-1.1-0.3-2.9,0.3-5c1.1-3.5,3.8-5.8,4-5.7c0.2,0.1-1.2,2.4-1.3,2.3c-0.2-0.1,1.4-2.6,2-6.3c0.3-1.7,0.3-3.2,0.3-6.3
															c0-2.9-0.1-2.8,0-4.3c0.2-2.5,0.6-3.1,1-6c0.4-2.9,0.6-4.4,0.3-6c-0.5-2.8-2.3-4.7-4-6.3c-7.6-7.3-11.3-10.9-18.3-13.7
															c-7.1-2.8-12.9-2.9-18-3c-9.7-0.2-20.6-0.3-25.7,6.7c-2.3,3.2-2.5,6.6-2.7,13.3c-0.2,5.5-0.4,13,3.7,20c2,3.5,4.4,5.5,4.3,9.3
															C253,436.7,252,438.8,253.3,440.2z"/>
													</g>
													<g id="Layer_22">
														<path class="st6" d="M175,375.2c-0.5,2.2,2.8,3.2,3.7,7.7c0.2,1.1,0.1,2.5,0,5.3c-0.1,2.4-0.2,3.6-0.7,4.3
															c-1.1,1.8-2.6,1.2-4.7,3.3c-0.7,0.7-1.8,1.9-2,3.7c-0.2,1.6,0.6,2.9,1,3.7c1.4,2.4,4,4,4,4c0,0,3.3,1.3,6.3,2.7
															c3.9,1.7,5.7,2.7,5.7,2.7c0,0-2.1-1.3-2.3-1c-0.2,0.3,2,1.6,3.7,4.3c0.6,0.9,0.9,1.8,1.7,3.7c0.9,2.2,1.7,4.7,1.7,4.7
															c0,0-1.3,2.3-2,4c-0.8,2.1-0.5,2.7-1,5.3c-0.7,3.5-2.4,7.1-3,7c-0.5-0.1-0.5-2.9,0-3c0.6-0.1,0.7,3.4,3.3,5.3
															c1.5,1.1,2.4,0.6,7,2.3c0.9,0.3,3.6,1.3,2.7,1c0.1,0-5.7-0.6-5.7-1c0-0.3,3.7,0,8-1.7c2-0.8,2.3-1.3,2.3-1.7c0-1.1-2.9-2.1-3-2
															c-0.1,0.3,8.9,6.3,10.7,4.7c0.8-0.8-0.1-3,0-3c0.2,0,0.8,2.9,2,6.7c0.9,3,1.2,3.5,1.3,5c0.2,2-0.2,2.6,0.3,3.3c1.4,1.8,6,1,6,1
															c0,0,3.2-1,3.3-2.3c0.2-1.2-2-1.7-2-3c0-1.3,2-2.3,3.3-2.7c1.7-0.5,2.7-0.1,4.7,0c2.4,0.1,4.2-0.3,7-1c4.4-1.1,5.2-2.2,7.3-1.7
															c1,0.3,2.5,1,3.7,2.3c1.1,1.3,0.9,2.1,2,3c1.2,0.9,3.1,1.4,4,0.7c1-0.8-0.1-2.6,1-3.7c1.1-1.1,2.7,0.1,4-1c1.3-1.1,1.1-3.6,0.7-5
															c-0.6-2.2-1.9-2.6-1.7-3.7c0.3-1.5,2.6-1.1,5-3.3c1.1-1,1.7-2.2,3-4.7c1.4-2.6,2-3.9,1.7-5c-0.5-1.4-1.9-1.1-4-3
															c-1.8-1.7-2.6-3.6-3-4.7c-0.8-2-0.9-3.6-1-6c-0.1-2.8-0.2-4.3,0.3-5.3c1.2-2.3,3-1.5,6-4.3c2.3-2.2,2-3.4,4-4.3
															c1.2-0.6,1.9-0.4,5-0.7c2-0.1,4-0.5,6-0.7c3.4-0.3,12.2-1.9,17.3-4.3c7.7-3.6,15.1-12.9,16-23.9c1.2-14.4-9.1-26.3-19.3-30.8
															c-6.4-2.8-12-2.3-20-1.7c-15.9,1.3-18.4,6.5-37.3,10.3c-13.6,2.8-13.7,0.4-24.7,3.7c-4.6,1.4-19.5,5.8-26.3,13.7
															c-1.7,1.9-3.4,4.7-7.3,7C177.5,373.4,175.4,373.5,175,375.2z"/>
													</g>
													<g id="Layer_21">
														<path class="st7" d="M217,320.9c-2.7,0.1-3.9-1.6-9.2-2.9c-2.3-0.6-2.9-0.5-3.5-0.4c-2.1,0.5-2.4,2.3-4.7,4.3c-2.4,2.1-5,2.8-6,3
															c-1.5,0.4-2.1,0.3-8,0c-6.4-0.3-7-0.2-7.7,0c-3.5,1-5.9,3.5-7,4.7c-3,3.2-2.5,4.8-4.7,5.7c-3,1.1-7.3-0.7-7.3-0.7
															c-3.7-0.2-5.9,1-7,1.7c-1.5,1-2.4,2.3-4.3,5c-2.2,3-2.1,3.7-4,6c-1.4,1.7-2.7,2.9-3.7,3.7c-2.3,2-2.8,2-6,4.3
															c-3.2,2.4-4.8,3.6-6,5.3c0,0-0.3,0.5-2.7,5c0,0.5,0.3,2.9,2.3,4.3c2.3,1.6,5.9,1.3,6.7-0.3c0.6-1.1-0.1-3-1.1-4.1
															c-0.5-0.5-0.9-0.7-0.9-0.9c0.2-0.8,6.3,0,6.3,0c0,0,4.7,2,4.7,2c-1.1-1.5,3.4,3.3,2.7,5c-0.5,1.3-3.3,1.3-3.7,1.3
															c-2.5,0-3.7-1.2-4.3-0.7c-0.8,0.7,0.8,3.6,1,4c1.9,3.3,5.1,5.3,5.3,5c0.3-0.3-1.8-2.5-1.7-2.7c0.2-0.2,2.2,3.5,6.3,5.3
															c1.9,0.9,4,1.1,8,1.7c1.7,0.2,2.9,0.3,3.3,0.3c2.1,0.1,3.2,0,5.7,0c5-0.1,4.6,0.2,6.7,0c2.5-0.3,4.4-0.8,6-1.3
															c3.7-1.2,4.2-1.9,7-2.3c2.5-0.4,2.6,0.2,4.3-0.3c3-0.8,3-2.5,6-3.7c2.8-1.1,3.5,0.2,6.3-1c2.7-1.1,2.4-2.3,5-3.3
															c3-1.2,6.1-0.4,7.7,0c2.1,0.5,2.2,1,5.3,2.3c3.1,1.3,5.7,1.9,8.7,2.7c2.8,0.7,6.8,1.5,8.7,2c1.9,0.5,2.8,0.8,3,0.9
															c0.1,0.1,0.3,0.2,0.4,0.1c0.6-0.2,0.2-3.3-0.8-5.9c-0.2-0.5-0.2-0.6-0.2-0.7c0,0,0.3-1.1,11.7-0.3c0,0,0.6-5.5,0.7-6.3
															c0.6-6.2-0.4-12.8-0.7-15c-1.8-15.1,9.3-21.3,5.3-30.3c-3.2-7.3-14.4-11.9-21.7-10c-1.2,0.3-7.1,2-13.3,5.7
															C220,320,218.9,320.9,217,320.9z"/>
													</g>
													<g id="Layer_20">
														<path class="st8" d="M333,323.2c-0.3-0.6-1.1-2.6-3-4.7c-1.2-1.2-2.1-1.8-5-3.7c-6.6-4.2-7-4.4-7.7-5c-3.2-2.7-2.4-3.5-5-5.7
															c-5.5-4.6-13-4.3-13.3-4.3c-4.9,0.2-7,2.3-9.7,0.7c-1.1-0.7-1.3-1.4-4-3.3c-1.9-1.4-2.2-1.4-3.3-2.3c-0.8-0.7-1.4-1.4-3.3-4.3
															c-2-3-3-4.5-3.7-6c-0.4-0.8-0.5-1.2-2.3-6.3c-1.9-5.3-1.8-5.3-2-5.7c-1.6-4.1-2.4-6.1-4-8.3c-1.2-1.6-2.4-3.3-4.7-4.3
															c-1.8-0.9-2.5-0.5-6-1c-3.9-0.6-7-1.7-9.7-2.7c-1.2-0.4-2.7-1.1-5.7-2.3c-5.4-2.3-5.1-2.4-7.7-3.3c-4.6-1.8-5-1.3-7-2.7
															c-1.5-1-2.1-1.8-4.3-3c-1.9-1.1-2.8-1.6-4-1.7c-3.2-0.2-5.6,2.8-6,2.3c-0.3-0.3,1.2-2.4,1.3-2.3c0.2,0.1-1,3.4-3.3,6
															c-0.8,0.9-1,0.9-2.7,2.3c-1.2,1-4.4,3.9-7.7,8c-1.9,2.4-2.8,2.7-2.7,3.7c0.2,1.6,2.4,3.1,4.3,3c1.6-0.1,2.7-1.2,4.3-3
															c1.7-1.8,1.5-2.3,3-3.7c1.1-1,2.7-2.5,4.7-2.3c1.3,0.1,1.4,0.9,4,2.3c2.8,1.6,3.5,1.1,4.7,2.3c1.3,1.4,0.6,2.2,2,4.3
															c1.7,2.6,3.2,2.3,4,4.3c0.6,1.5-0.2,1.9-0.7,5.7c-0.4,3.3,0.1,3.5-0.3,7.7c-0.3,2.8-0.7,3.9-1,4.7c-0.7,1.6-1,1.5-2.3,3.7
															c-1.2,2-1,2.3-3,6.3c-1.3,2.7-1.3,2.4-1.7,3.3c-1.1,3.1-0.3,3.9-1.3,6c-1,2-2.8,3.2-3.7,3.7c-1.9,1.2-2.4,0.7-3.7,1.7
															c-2.7,2-2.8,5.8-3.3,5.7c-0.4-0.1-0.5-3.3,0-3.3c0.7-0.1,2.7,8,2.7,8c1.7,5.2,2.7,6.7,2.7,6.7c0.7,1,1.2,1.9,2.3,2.7
															c2.2,1.6,3.6,0.7,7,1.7c0.8,0.2,4,1.2,6.7,3.7c0.5,0.5,1.4,1.9,3.3,4.7c3.7,5.5,4.4,6.5,5.7,8c1.1,1.3,1.3,1.4,2.7,3
															c1.3,1.6,1.7,2.2,3.7,4.7c2.1,2.7,1.9,2.3,2.7,3.3c1.2,1.7,1.5,2.4,3.3,5.3c2.6,4.2,3.1,4.4,3.3,4.3c1.4-0.3,1.7-6.3,1.7-6.3
															c0,0,0.4-3.5,2-4.3c1.3-0.6,3.4,0.3,4.3,1.7c1,1.5,0.2,2.7,1,3.3c1,0.7,2.4-0.7,6-1.7c3.1-0.9,3.8-0.3,5.3-1.3
															c1.7-1.1,1.6-2.2,3-3.3c0.8-0.6,2.7-1.7,7.7-0.7c6.4,1.3,10.9,4.7,11.3,5c9.8,7.3,31.3,7.5,45.7-0.7c1.7-0.9,15.8-8.9,14.7-17
															C354.2,337.8,336.5,331.1,333,323.2z"/>
													</g>
													<g id="Layer_19">
														<path class="st9" d="M355,385.6c-0.5,1.4-0.3,2.5-1.4,4.5c-0.9,1.7-2.1,2.7-2.9,3.5c-2,1.9-2.8,1.8-4.7,3.3c-2.1,1.7-1.5,2.1-4,4.7
															c-3.2,3.3-4,2.6-6,5.3c-1,1.4-1.4,2.3-2.7,3c-1.1,0.6-1.8,0.5-3.7,0.7c-0.3,0-2.9,0.3-5,1c-3.5,1.1-3.2,2.5-6.3,3.3
															c-2,0.5-3.7,0.4-5.3,0.3c0,0-1.6-0.1-4.3-0.7c0,0-1.9,1.6-2.7,3.3c-0.9,2.3,0.5,4.1-0.3,4.7c-1,0.7-3.7-1-3.7-1
															c2.6,1.1-5.5-1-6.7-2c-0.3-0.3-1.6-1.3-2-3c-0.4-1.7,0-4,0-4c-6.1-1.4-8.7-2.3-8.7-2.3c-3.8-1.4-5.8-2.2-6.3-4
															c-0.5-1.6,0.9-2.4,1.3-6.3c0.1-0.6,0.2-2,0-3.7c0,0-0.2-1.9-2-7.3c0,0-1.8-3.1-1-5c0.6-1.5,2.2-1,3.3-2.7c0.9-1.4,0.7-3,0.3-5.3
															c-0.2-1.5-0.3-2.5-1-3.7c-1.4-2.5-3.7-2.8-3.7-3.7c0-0.7,1.7-1.6,8.7-2.3c0.4-2.4,0.7-4,0.7-4c-1.1,3.8-1.3-3.3-1.3-3.3
															c0.4-0.9,2.1,0.1,3.7-1c1.2-0.8,0.7-1.7,2-3.7c1-1.5,1.5-1.3,3.3-3.3c1.2-1.3,1.8-2.4,2.7-3.7c0.8-1.3,1.8-2.9,2.7-5
															c2.3,0,4.3-1.2,5-3c0.6-1.5,0.2-2.9,0-3.3c-0.3-0.5-1.3-2.3-0.7-4.3c0.5-1.6,1.8-2.5,3-3.3c1.9-1.3,2.8-1.1,5.3-2.3
															c1.8-0.9,2.3-1.5,3.7-2.3c3-1.9,4.4-1.5,11.3-3.3c3.4-0.9,7.4-2.2,7.3-2.3c0-0.1-3,0.4-3,0.7c0,0.4,4.9,0.6,10-0.4
															c1.7-0.4,2.9-0.8,3.3-0.9c5.6-1.8,20.8-1.2,28,8.3c3.8,5,3.9,10.5,4,17c0.1,6.4-2.2,13-6.7,26.3c-2,5.9-2.9,7.7-4.7,9.3
															C360.4,381.6,356.3,381.7,355,385.6z"/>
													</g>
													<g id="Layer_18">
														<path class="st10" d="M408,399.2c-0.5,0-2.7-0.3-5.3-1.3c-1.8-0.7-2.6-1.1-3.3-2c-1.7-2.3-1-6.3-1-6.3c0,0-2.5-3-4.3-6.7
															c-0.4-0.8-1.2-2.4-2-4.3c-0.9-2.1-1.1-2.9-2-3.7c-1-0.8-1.4-0.4-3.3-1.3c-2.4-1.1-2.4-1.8-4-2.3c-2.2-0.6-4.2,0.1-4.7,0.3
															c-1.9,0.8-2,1.8-4.7,3.7c-0.8,0.5-1.3,0.8-3,1.7c-4.9,2.5-7.4,3.8-7.7,4c-3.3,2.4-2.1,3.5-6.3,7c-1.4,1.2-4.3,3.3-4.3,3.3
															c0,0-2-3.3-2-3.3c-2.5-3.4-2.7-4.3-2.7-4.3c-0.3-1.8,0.6-3.4,1-4c0.8-1.3,1.9-2.1,3.3-3c4.3-2.6,8.9-4.6,9-4.3
															c0.1,0.2-2,1.3-2.7,1.7c-1.1,0.6-2.2,1-3,1.3c1.4-4.1,2.6-7,3.2-7.5c0.2-0.1,0.3-0.3,0.3-0.3s0.7-0.5,1.5-0.5
															c1.3-0.1,2.8,1.8,2.7,2c-0.2,0.3-4.1-2.4-7-5.7c-1.1-1.3-1.9-2.4-2.3-3.7c-0.5-1.5-0.2-1.8-0.7-3.7c-0.8-3.3-2.5-4.9-2-5.3
															c0.5-0.5,2.7,0.8,2.7,1c-0.1,0.3-6.7-2-6.7-2c0,0-2.2-1.2-4-1.7c-1-0.2-2.4-0.4-4.3,0c-0.2-3.3-0.5-5.6-1-5.7c-0.5,0-1.4,2.4-1,2.7
															c0.5,0.3,3.2-2.1,4.3-5.3c0.5-1.3,1-3.7,1-3.7c0,1.2,0.1-2.4,0-3.7c-0.1-2.8-3.3-10.6-2.3-8c0,0,0,1,0,3c0.1-2.4,0.2-4.9,0.3-7.3
															c0.4-2.6,1.3-4.3,2-5.3c0.9-1.3,1.2-1.2,5.7-5.3c1.1-1.1,1.7-1.6,2.7-2.3c1.4-1.1,2.5-1.8,4-2.3c1.6-0.5,2.9-0.4,4.7-0.3
															c1.7,0.1,2.9,0.4,4.3,0.7c2.4,0.5,2.7,0.8,5,1.3c2.9,0.7,4.4,1,5.3,0.3c1.5-1.1,2-4,2-4c0,0,2.8-1.2,5.3-2.7c0.8-0.4,2-1.2,3.3-2.3
															c1.7-1.5,3.1-3,4-4.4c-1.2,0.5-2.4,1.1-2.3,1.3c0.1,0.4,4.9-1.4,9-1.7c4.9-0.3,9.4,1.6,16.1,6.5c8.8,6.3,17.9,12.7,25.5,25.5
															c7.6,12.7,9.5,24.4,10.7,32.3C449.7,375.1,413.4,399.8,408,399.2z"/>
													</g>
													<g id="Layer_17">
														<path class="st11" d="M421.3,443.2c-3.1-2.9-4.7-4.4-5.7-6c-1.2-2-1.7-3.8-3.2-4.1c-1.4-0.3-2.1,0.9-3.5,0.5
															c-1.7-0.5-2.5-2.6-2.7-3.1c-0.7-1.8-0.1-2.6,0-6c0.1-3.1,0.1-4.6-0.7-6.3c-1-2.1-2.1-2-3.7-4.3c-1.3-2-1.7-3.9-2-5.7
															c-1.1-5.7,0.5-10.6,1.3-13c1.5-4.4,2.4-4,4-9c0.8-2.4,1-3.9,2.3-6.3c1.2-2.1,1.7-2.3,2.3-4c0.7-2,0.7-3.7,0.7-6
															c0-2.2,0-3.3-0.3-3.9c0-0.1-0.1-0.2-0.1-0.4c0.3-1.2,6-0.7,6-0.7l1.3-4.7c0,0-4.7-3.7-4.7-3.7l-3.3-3.3c0,0-2.6-1-6.7-2.7
															c-0.6,0.2-2.5,0.7-4.7,0c-0.6-0.2-2.1-0.7-3.3-2.3c-1.2-1.6-1.8-4.1-1-6c0.8-1.9,2.1-1.5,3.3-4c0.7-1.5,1.3-3.7,1.3-3.7
															c0,0-0.6-2.5-2.5-4.1c-0.5-0.4-0.9-0.8-1.5-0.9c-1.7-0.3-3.5,1.4-3.3,1.7c0.2,0.4,7.5-1.9,7.7-4.7c0.1-1.6-2.3-3.4-4.3-4
															c-3.2-1-5.3,0.8-6.3-0.3c0,0-0.6-0.6,1-6.3c0,0,1-4.7,1-4.7c0,0-6.7-7-6.7-7c1.2,1.3-3.3-2.6-3-4.3c0.3-2.1,5.9-3.2,10.3-3.3
															c4.9-0.1,8.6,0.9,10,1.3c3.2,0.9-1.7-0.7,20.7,3.3c24.9,4.5,37.4,6.7,51.4,10.6c23.2,6.5,27.9,10.7,30.8,14
															c5.1,6,7.1,12.6,9.4,20.8c3.6,12.4,3.5,22.8,3.4,29.6c-0.1,8.4-1.2,14.5-1.7,17c-0.7,3.9-1.5,7.8-3.3,12.7c-2.5,6.6-4.1,7-8.3,16
															c-3.8,8.1-2.7,8.2-4.9,11.1c-2.7,3.5-6.9,5.8-15.4,10.3c-6,3.2-10.5,5.1-12.7,6c-5.5,2.3-8.5,3.5-13,4.3c-5.5,1-9.9,0.8-11.3,0.7
															c-3.5-0.3-10.7-0.9-17.7-5.3C425.4,447,423,444.8,421.3,443.2z"/>
													</g>
													<g id="Layer_16">
														<path class="st12" d="M476.3,439.2c-0.5-1.5-0.5-3.1-0.3-6.3c0.2-3.8,0.7-3.8,0.7-7c0-2.7,0-4.7-1-7c-0.8-1.8-1.4-2.2-1.3-3.3
															c0.1-1.8,1.6-2.1,3.3-4.7c2.1-3.2,1-4.7,3-6.3c1.8-1.5,3.2-0.8,4-2.3c0.9-1.6,0.3-4.3,0.3-4.3c0,0,1.9-2.3,2.3-5
															c0.3-1.8-0.3-1.8,0-4c0.2-1.4,0.5-1.6,1-3.7c0.3-1.2,0.4-2,0.7-3.7c0.2-1.4,0.5-3.4,0.7-5.7c-1.3-2.4-2-3.7-2-3.7
															c0,0,1.2-2.1,1.7-3.7c1.2-3.6,0-7.7,0-7.7c-5.6-0.8-7.3-1.3-7.3-1.3c-1.5-0.5-3.7-1.3-3.7-1.3c0,0,1-2.8,0.3-3.3
															c-0.8-0.7-4,2.1-4,2c0,0,2.2-2.7,6.3-4.7c2.5-1.2,4-1.4,4.3-2.7c0.1-0.5,0.1-1.1-1.4-3.5c-2.2-3.7-3.4-4.2-3.3-5.2
															c0.2-2.4,8.1-3.7,10-4c14.9-2.3,22.4-3.4,31.3-0.3c6.1,2.1,10,5.1,14.3,8.3c3.1,2.4,12.5,9.9,19.3,22.7c2,3.7,3.1,6.6,3.3,7.3
															c2.4,6.4,2.5,10.1,3.7,17.3c2.3,13.7,4,12.1,4.3,20c0.3,7.1-1,7.9-0.3,16.3c0.4,4.2,0.9,5.9-0.2,8c-1.9,3.8-6.7,4.6-13.5,6
															c-22.6,4.6-19,5.2-26,5.7c-3,0.2-10-0.1-24-0.7c0,0-1.5-0.1-6-0.3c-10-0.6-11.3-0.9-12.3-1.3C482.8,445.2,477.9,443.4,476.3,439.2z
															"/>
													</g>
													<g id="Layer_15">
														<path class="st13" d="M482.5,557.9c-0.9-0.6-1.8-1.2-2.8-1.8c-2.1-1.3-2.5-1.7-3.5-2c-1.2-0.4-2.4-0.5-2.8-0.5
															c-1.6-0.1-1.9,0.1-2.5-0.3c-0.8-0.5-0.5-1-1.5-2.5c-0.6-0.8-2.7-3-2-2.3c-0.6-0.1-1.6-0.3-2.8-0.3c-2.1,0-2.3,0.5-4,0.5
															c0,0-0.9,0-5.5-1l0,0c0,0,2,1,2,1c0,0-3.2-1.6-6.8-1.3c-0.5,0.1-1.7,0.2-3,0.8c-2,0.9-2.1,1.7-3.8,2.3c-1.1,0.4-1.2,0-4.3,0
															c-3.1,0-3.8,0.4-4.5-0.3c-0.6-0.5-0.3-1-0.8-3.5c-0.5-3-1.1-3.1-1-4.8c0.1-2.3,1.2-2.8,0.8-3.8c-0.7-1.3-3-0.4-6.3-2.3
															c-1.1-0.6-0.8-0.7-2.3-1.5c-2.1-1.2-2.8-1.1-4.8-2.3c-1.6-0.9-2.4-1.4-3-2.5c-0.3-0.6-0.4-1.7-0.5-3.8c-0.1-2.1-0.2-3.2,0-4.3
															c0.2-1.4,0.7-3.3,0.8-3.3c0,0,0-2.6-0.8-4.5c-0.8-2.1-1.8-1.7-3.3-4.3c-0.3-0.5-0.8-1.9-1.8-4.8c-0.6-1.6-1-2.9-1.3-3.8
															c-0.9-2.8-1.4-4.1-1.5-4.8c-0.6-2.3-0.4-2.7-1-3.5c-0.9-1.2-2.5-2.3-2.5-2.3c0,0-3.9-4-6.1-5.2c-0.2-0.1-0.5-0.2-0.6-0.1
															c-0.4,0.3,0.2,2.3,0.8,2.3c0.7,0,0.3-4.2,2.5-5.3c0.4-0.2,1.3-0.2,3.3-0.3c0.8,0,1.6,0,2.8,0c2.3,0.1,2.6,0.3,3,0
															c0.3-0.2,0.5-0.6,0.5-4c0-1.9,0-4,0-4c-1.2,3.7,2-7,2-7c0.3-2.4,0-5.2,0-5.3c0,0-0.8-3.3-0.8-3.3c0,0-1.6,1-2.8,2.3
															c-0.6,0.7-0.4,0.7-1.5,2.3c-1.1,1.6-1.7,2.4-2.5,3c-1,0.7-2.5,1.2-2.5,1.3c0,0-2.6-1.6-3.5-3.8c-0.8-1.9-0.3-3.9,0-5
															c0.6-2.3,1.4-2.3,1.5-4c0.1-1.5-0.6-1.6-1-4.3c-0.2-1.3-0.4-2.4,0-3.8c0.1-0.5,0.5-1.7,1.5-2.8c1.1-1.2,1.8-0.8,3.3-2
															c0.7-0.6,0.5-0.6,2.3-2.8c1.6-1.9,1.9-2.1,2-2.8c0.1-1.5-1.4-2.3-1-3c0.3-0.6,1.3-0.2,3.5-0.5c1.6-0.2,1.7-0.5,3.3-0.8
															c1.8-0.3,3.3-0.5,4.8,0c1.6,0.6,1.4,1.4,4.3,3.5c2.2,1.6,2.9,1.6,3.3,1.5c1.4-0.3,2.7-2,2.8-2c1-4.8,1.7-5.2,1.8-5.3
															c1.5-1,4.2-0.2,5,1.3c0.2,0.4,0.1,0.5,0.5,1.8c0.5,1.6,0.9,2.2,0.8,2.3c-0.3,0.2-3.3-4.2-3.3-4.3c0.1-0.1,2.2,5,6.3,5.8
															c1.8,0.4,2-0.6,5.8-0.5c2.2,0.1,3,0.4,4.8,0c1.6-0.4,2.9-1.1,3.3-1.3c1.6-0.9,1.3-1.2,2.5-1.8c1.9-0.9,4.3-0.7,4.3-0.8
															c0,0,2.1,0.5,3,0.8c3.2,0.8,4.8,1.2,5.5,1.3c2.3,0.2,4.8,0,4.8,0c0,0,2,1.1,3.8,1.8c1.6,0.5,3,1,4.5,0.5c2.2-0.7,3.5-3,3.3-3.3
															c-0.2-0.2-1.9,0.9-1.8,1.3c0.3,0.7,8.3-1.3,8.3-1.5c0-0.1-2.3,0.2-2.3,0.3c0,0,1.9-0.2,5-0.5c2.5-0.2,2-0.2,6-0.5
															c5-0.4,6-0.6,7,0.3c0.8,0.6,2,2.2,2,2.3c0,0,2.6,0.5,3.8,0.8c3.2,0.7,5.8,1.2,6,1.3c4.7,1,9.5,8.1,13.3,12.3
															c8.6,9.6,13.5,5.7,21.3,15c5.1,6.1,7,12.6,7.8,16c2.2,10-0.5,18.1-2.5,24c-2.5,7.4-5.9,17.6-15.5,24c-3.5,2.3-10.9,7.3-19.9,7.1
															c-2.1,0-3.5-0.3-5.1,0.6c-4.4,2.7-1.2,9.7-6,17c-0.7,1.1-3.9,5.6-9.3,7c-0.7,0.2-1,0.2-7,0C488.7,559.8,485,559.5,482.5,557.9z"/>
													</g>
													<g id="Layer_14">
														<path class="st14" d="M563.3,576.6c-0.3,0.7,0.1,0.9,0,3.8c-0.1,1.5-0.1,2.2-0.4,2.9c-0.6,1.7-2.2,3.6-3.9,3.6c0,0-0.3,0-2.8-1.3
															c-3.6-2.2-6.4-2.6-8.3-2.5c-1.4,0.1-3.2,0.4-5.8-0.3c-1-0.3-1.3-0.5-2.5-0.8c-2.2-0.5-2.6-0.2-4.5-0.5c-3.1-0.5-3.7-1.8-5.3-1.3
															c-1.2,0.4-1.9,1.4-2.3,2c-0.9,1.4-0.4,1.9-1.3,4c-0.8,1.8-1.4,1.9-1.8,3.5c-0.3,1.2,0,1.2-0.3,2.5c-0.3,1.3-0.7,1.4-1.5,3.5
															c-0.6,1.6-0.5,1.6-1,2.8c-0.4,0.7-0.8,1.7-1.8,2.8c-1,1.1-2,1.7-2.5,2c-0.6,0.4-1.5,0.8-2.8,1c-1.7,0.2-3.5-0.3-3.5-0.3
															c0,0-1.7-2.8-2.8-6c-0.9-2.6-1.3-5.2-1.3-5.3c-0.2-1.3-0.2-1.8-0.5-2.8c-0.5-1.4-0.9-1.6-2-3.5c-0.8-1.5-1.3-2.9-1.8-4
															c-0.8-2.2-0.5-2.1-1-3c-0.9-1.8-1.7-1.6-3.8-4c-1.4-1.7-2.8-3.7-2.8-3.8c0,0-3.1-0.1-5.3,1c-2.3,1.2-3.5,3.7-3.3,4
															c0.2,0.2,1.8-1,1.8-1c0,0-2.2,2.3-4.5,2c-2.7-0.3-4.4-4.1-4.5-4c-0.1,0.1,1.2,2,1.3,2c0.1-0.1-1.8-2.6-3-6.5
															c-0.5-1.6-0.8-2.6-0.8-4c0-1.3,0.3-1.8,0.5-4c0.1-1.4,0.1-2.1,0-2.8c-0.5-2.1-2.1-2.6-2-3.8c0-0.6,0.6-1.5,3-2.5
															c0.6-0.2,1.5-0.4,2.8-0.5c2.3-0.2,3.1,0.5,4.8,0c1.3-0.4,2.2-1.2,2.8-1.8c0,0,1.4-1.4,2.8-4.3c0,0,1.8-2.8,3.8-5.5
															c2.8-3.8,3.5-4.3,4.3-4.5c0.9-0.3,3.2-0.8,3-0.8c0,0,7-0.3,11.3-0.3c5.7,0,9.9,0.5,14.5,1c12.8,1.5,19.4,2.2,27.5,5.3
															c8,3,13.6,5.2,16.8,11c2.8,5.2,2.4,11,2.3,12.5c-0.3,3.5-0.6,6.4-2.8,8.3C569.2,575.7,564.1,574.2,563.3,576.6z"/>
													</g>
													<g id="Layer_13">
														<path class="st15" d="M612.3,568.9c-1.8,0.2-4.3,0.8-5,1c-2.3,0.6-3.5,0.9-4.8,1.5c-2.2,1.2-2,1.9-3.8,2.5c-0.6,0.2-2,0.2-4.8,0.3
															c-1.7,0-2.6,0-3.3,0c-1.8-0.1-2.2-0.2-3,0c-1.3,0.4-2.2,1.3-2.5,1.8c-0.8,0.9-0.6,1.2-1.5,2.8c-1,1.7-1.5,2.6-2.5,3
															c-1.2,0.5-2.4-0.1-3.5-0.5c-0.5-0.2-1.2-0.6-2.5-1.5c-2.2-1.4-2.1-1.5-2.8-1.8c-0.7-0.3-2.4-0.9-3.8-0.3c-0.9,0.4-0.5,0.9-2.3,2.8
															c-0.8,0.9-2,2-2,2c-0.2,0.2-1.4,1.3-2.8,1c-0.4-0.1-1.1-0.3-2-1.5c-1-1.3-1.3-2.3-2-4.5c-1.1-3.3-2.1-6-2-6c0,0,0,0,0,0
															c0.2,0,0.9,2.3,1,2.3c0.1,0-0.5-3.2-1-5.8c-0.4-2.3-0.4-2.5-0.8-3c-1-1.5-2.4-1.1-3.8-2.8c-0.3-0.4-1.3-1.6-1-2.8
															c0.3-1.2,1.8-2.3,1.8-2.3c3.5-2.4,3.5-3,3.5-3c0-0.7-1.1-1.2-3.3-2.3c-0.5-0.2-0.9-0.4-3.3-1.3c-2.3-0.8-3.5-1.3-4-1.3
															c-0.5,0-2.6,0.1-4.2,1.5c-0.5,0.4-0.5,0.7-0.8,0.7c-1.1,0.2-1.6-2.2-4-3.8c-0.7-0.4-0.5-0.1-3.5-1.5c-2.2-1-2.6-1.3-2.8-1.8
															c-0.4-1.3,1.5-2.6,1-3.5c-0.3-0.6-1.3,0-3-0.8c-1.2-0.5-2.5-1.5-2.5-1.5c0,0-2.1-0.2-4-0.5c-2.4-0.3-2-0.4-3-0.5
															c0,0-1.2-0.1-5.5,0.3c0,0,1.8-0.4,1.8-0.5c0-0.1-2.2,0.9-4.8,0.5c-2.2-0.3-4.5-1.5-4.5-1.5c0,0,0.2-3.8,1.3-7.8
															c0.3-1.1,0.6-2,1-3.3c0.7-2.1,1.4-3.8,1.8-4.8c0.4-1,1.7-4,1.3-3c0,0,1.5-3.6,4-4.3c0.7-0.2,0.6,0.1,3.3,0.3
															c1.9,0.1,2.2-0.1,2.8,0.3c0.9,0.5,1.1,1.6,1.5,3.3c0.4,1.7,0.2,2.3,0.8,2.8c0.7,0.6,1.9,0.5,2.8,0.3c0.9-1.7,1.5-2.7,1.5-2.8
															c0,0-2-0.8-2.8-2.3c-0.6-1.2,0.1-1.7-0.5-2.8c-0.8-1.4-2.7-1.7-3-1.8c-1.5-0.2-2,0.4-2.8,0c-1-0.6-1.3-2.6-0.8-4
															c0.3-0.8,1-1.4,2.3-2.5c1.7-1.5,2.6-2.2,3.8-2.5c0.8-0.2,1.2-0.1,4.3,0.3c0,0,0,0,0,0c0,0.1,1.2,2.5,1.5,2.5c0.5-0.1,0.7-8.1,1-8.5
															c0,0,0,0,0,0s0.2-0.2,0.4-0.4c0.8-0.7,1.7-1.1,1.7-1.1c1.2-0.6,3.1-0.9,3.1-0.7c0.1,0.4-4.7,2.6-9.5,2.3c-1.2-0.1-2.2-0.3-2.5-1
															c-0.6-1.2,1-3.8,1-3.8s1.6-2,3.5-4c1.7-1.9,2.1-2.1,2.5-2.3c0.5-0.2,1.5-0.1,3.5,0c1.5,0.1,3.3,0.3,3.3,0.3c0,0,9.2,1.2,11,1.5
															c4.1,0.6,15.8,2.2,27.8,7.5c10.6,4.7,8.7,6.6,19.3,10.8c5.1,2,8.8,2.9,12.5,6.8c2,2.1,3.9,5,6.3,8.8c0.5,0.7,2.8,4.5,4,6.8
															c3.8,7.4,1.1,12,2.3,22.8c1.3,11.7,5.7,18,3.3,19.8C621.4,571.2,618.6,568.1,612.3,568.9z"/>
													</g>
													<g id="Layer_12">
														<path class="st16" d="M668.5,551.4c-0.7,3-0.9,3.1-1,4.3c-0.1,0.8-0.3,2.4,0,4.3c0.2,1.4,0.6,1.9,1.5,4.3c1.8,4.4,1.2,4.1,2.3,6.3
															c1.4,2.8,2.5,3.3,2.5,5.3c0,1.2-0.4,2.1-0.8,3c-1.1,2.5-2.2,2.5-2.8,4.3c-0.8,2.4,0.9,3.3,0,5.3c-0.7,1.4-1.6,1.1-3.3,3
															c-1.4,1.7-1.1,2.4-2.3,4c-1.6,2.2-2.6,1.4-5,3.8c-2.4,2.3-2.1,3.8-4.8,5.5c-1.1,0.7-2,1.1-2.5,1.3c-3,1.1-5,0.5-9,0.5
															c-4.9,0-4.2,0.8-7.5,0.5c-3.2-0.3-4.2-1.1-7.8-1c-2.2,0.1-3.7,0.3-3.8,0.3c-3,0.4-3.9,0.9-5,0.3c-0.9-0.5-0.7-1-2-2.5
															c-1.4-1.6-2.1-1.4-3.5-2.8c-0.5-0.5-1.9-2-2.5-4.3c-0.4-1.8-0.2-3.4,0-4.8c0.1-1,0.3-1.2,0.5-2.8c0.2-1.5,0.3-2.3,0.3-3.3
															c-0.1-0.9-0.1-2-0.8-3c-0.7-1.2-1.4-1.1-2.5-2.3c-1.7-1.8-0.9-3.1-2.5-4.8c-1.2-1.2-2.8-1.6-3.5-1.8c-1.9-0.4-4.2-0.2-4.3-0.3
															c-3.3-0.8-6.7-1.7-10-2.5c1.2,0.5,2.3,1,3.5,1.5c-2.2-0.8-3.7-2.6-3.8-4.5c0-1.7,1.3-3,1.5-3.3c1.3-1.3,3.5-2,3.5-2l-0.5-4.8
															c0,0-0.2-3.7,1.3-4.5c0.2-0.1,0.5-0.2,3,0.5c1.9,0.6,4.3,1.4,4.3,1.5c0,0.1-1.8-0.4-1.8-0.5c0-0.1,3.5,1.2,7.5,0.5
															c1.1-0.2,3.5-0.8,3.5-0.8c-1.6,1.4,3.8-2.7,4.3-4.8c0.2-0.9-0.2-0.8,0-3c0.1-1.7,0.4-2.2,0-2.8c-0.2-0.3-0.5-0.5-2.8-1
															c-2-0.4-4-0.8-4-0.8c0,0-2.2-0.9-2.6-2.1c-0.2-0.9,0.7-1.8,1.3-2.6c2-2.7,1.3-5.5,1.8-7.8c0.8-4.3,5.4-7,9-9
															c10.1-5.8,21-3.1,24.3-2.3c2.5,0.6,5.5,1.4,8.8,3.5c1.9,1.2,4.9,5,11,12.5c10.2,12.6,1.4,2.6,5.5,8c0.8,1.1,1.9,2.4,2,4.3
															C669.3,547.7,669.3,548.2,668.5,551.4z"/>
													</g>
													<g id="Layer_11">
														<path class="st17" d="M688,511.4c-0.8,0.4-3,1.4-4.3,0.5c-0.8-0.6-0.6-1.5-1.7-2.3c-0.6-0.5-1.4-0.7-2.8-0.9
															c-2.4-0.5-3.5-0.7-4-0.1c-1,1.1,0.6,4.4,0.8,4.4c0.1,0-0.3-1.7-0.3-1.8c0.1,0,1.6,6.4,1.3,6.5c-0.2,0-0.8-2.1-1-2
															c-0.4,0.1,0.6,7,1,7c0.2,0,0.2-2.3,0.3-2.3c0,0,0.3,2.6-0.8,5.3c-0.8,2.2-2.3,3.8-2.5,3.8c-0.2-0.1,0.6-1.8,0.8-1.8
															c0.3,0.1-1.7,7.8-2,7.8c-0.1,0,0-0.4,0-1.8c0-1,0-1.7,0-1.8c0.1,0-0.4,3.5,1.5,6.3c0.9,1.2,1.3,0.9,2.3,2.3
															c1.9,2.6,1.5,5.2,2.3,5.3c0.6,0,1.2-1.6,1-1.8c-0.3-0.2-1.9,3-5.8,6c-2.2,1.7-5.2,3.5-5.3,3.5c0,0-2.9,0.3-4.8-1
															c-1.2-0.8-1.7-2-2.3-3.5c-0.6-1.6-0.9-3.4-1-3.8c-0.3-1.8-0.1-2.5-0.8-3c-0.8-0.6-2.5-0.5-2.5-0.5l-6.3,1.3c0,0-0.8,4-2.3,4.3
															c-0.5,0.1-0.6-0.3-2.3-1.3c-0.4-0.2-1.4-0.8-2.8-1.3c-1.7-0.6-1.7-0.2-3-0.8c-1-0.4-1.5-0.8-3-1.8c0,0-5.3-0.5-5.3-0.5
															s-3.2-4.2-3.3-4.3c0,0-2.2-2-5-4.5c-1.9-0.6-3.8-0.9-4.8,0c-0.9,0.9-0.6,2.5-1,2.5c-0.5,0-0.5-3.1-2-3.8c-1.7-0.7-3.9,2.1-4.8,1.5
															c-0.7-0.5,0-3,0.3-3c0.2,0,0.1,3.3-0.5,6.3c-0.5,2.3-1,3.1-1.5,3.8c-0.2,0.2-1.8,2.1-3.3,1.8c-1.7-0.5-2.5-4.3-2.5-4.3
															c0.5,0.9-0.9-2.4-2-2.5c-1.1-0.1-2.2,2.1-2.5,2.8c-1.6,3.2-1.6,6.7-1.5,6.8c0.1,0,0.6-1.8,0.3-2c-0.4-0.2-1.3,2.3-3.8,3.8
															c-0.6,0.3-2.4,0.7-6,1.5c-1.9,0.4-2.2,0.4-2.5,0.3c-1.4-0.9,0.4-3.7-1-7.5c-0.5-1.5-1-1.5-2.3-4.5c-0.5-1.1-0.6-1.5-1.3-3
															c-1-2.2-1.1-2.2-1.5-3.3c-0.2-0.6-0.4-1.9-0.8-4.3c-0.4-3-0.5-3.8-0.5-4.3c0-0.8,0-1.4,0-2.8c0-2.5,0.1-2.6,0-3.5
															c-0.2-0.9-1-3.7-0.8-2.8c0,0-1.2-1.3-3.5-3.8c-3.3-2.1-5.5-3.5-5.5-3.5c0,0-0.8,2.3-1.3,4.3c-0.5,2.3-0.6,4.9-0.3,5
															c0.4,0.1,1.1-2.3,1.3-2.3c0.2,0.1,0.1,3.7-2,5c-1.8,1.1-4.3,0.1-7.3-1c-1.6-0.6-2.7-1.3-3.5-1.8c-2.1-1.3-2.7-2.2-4.3-3.5
															c-4.3-3.6-7.1-2.6-8.8-5.5c-0.7-1.3,0-1.3-0.8-4c-1.2-4.3-3.2-5-4-9c-0.3-1.8-0.3-3.4-0.3-3.8c0-0.6,0.1-1.8,0.5-3.3
															c0.4-1.5,0.8-1.8,1.8-3.8c1.7-3.5,1.5-4.7,2.8-5.3c1.2-0.5,1.7,0.4,2.8,0c2.5-0.9,0.7-7.2,3.5-12.3c1.7-3.1,4.4-4.5,6.8-5.8
															c7.7-4,15.1-1.7,28,0c15.2,2.1,13-0.1,22.3,1.8c13.2,2.6,16.2,6.6,38.7,15.7c12.7,5.2,19,7.7,22.6,8c17.7,1.4,27-9.3,39.3-3.3
															c1.3,0.7,6.7,3.3,7.5,8c0.9,5.2-4.3,9.9-8.5,13.8C701.9,506.4,700.9,505.3,688,511.4z"/>
													</g>
													<g id="Layer_10">
														<path class="st18" d="M678.3,430.6c0.1,0.3,0.3,1.8,1.5,3.3c0,0,0,0,0,0c0,0,0.3,0.6,2,3c0.6,0.6,1.4,1.5,1.8,2.8
															c0.5,1.6-0.2,2.2,0,3.8c0.3,2.9,3.1,5.1,4.5,6.3c0.9,0.7,1.5,1,3,2.3c1.3,1,1.9,1.7,2.3,2c2.4,2,7.1,0.7,10,0
															c6.5-1.5,11.8-1,15.5-0.8c3.4,0.3,6.8,1.3,13.5,3.5c2.5,0.8,5.5,1.8,6.3,4.3c0.3,1,0.1,1.9,0,2.5c-1.5,7.4,2.9,10.8,0.5,15.8
															c-1.1,2.3-2.9,3.4-3,6.3c0,0.7,0.1,1.2,0,2.5c-0.1,1.1-0.2,1.9-0.8,4.5c-0.4,2-0.6,3-0.8,3.5c-0.6,2.5-0.9,2.9-1.8,5.8
															c-1.2,3.9-1,4.5-2,6.8c-0.7,1.6-1.2,2.6-2.3,3.5c-1.8,1.6-4.1,1.7-5.3,1.8c-3.6,0.2-6.3-1.4-7.3-2c-3.7-2.3-3.7-4.5-7.5-6
															c-1-0.4-2.2-0.9-3.8-0.8c-3.4,0.3-5.9,3.2-6.5,4c-1.6,2-1.4,2.9-3,4c-0.7,0.5-1.3,0.7-4,1.3c-4.4,0.9-6.6,1.3-7.5,0.8
															c-1.1-0.7-1.6-2.2-2.8-5.3c-0.7-1.9-0.8-2.9-1.8-3.3c-1-0.4-2.3,0.2-3,0.8c-1.2,1-1.1,2.1-1.8,2.3c-1,0.2-2.9-2.1-3-4.5
															c0-0.3-0.1-2.6,1.5-4c0.5-0.5,1.3-0.6,2.7-1c1.2-0.3,1.2-0.2,2-0.5c2.3-0.7,2.4-1.6,4.3-2c1.5-0.3,2,0.1,2.8-0.5
															c0.7-0.5,1.1-1.5,1-2.5c-0.2-1.1-1.1-2.1-2-2.3c-1.1-0.1-1.7,1.1-3.3,2.5c-1,0.9-11.3,4.6-9.8,4c0,0-1.9,1.4-3.5,1.3
															c-1.3-0.1-1.2-1.2-3-2c-1.9-0.8-4.3-0.5-4.3-0.5c0,0-2-1.5-4-2.8c-0.8-0.5-1.6-0.9-3.3-1.8c-3.6-1.8-4-1.9-4.5-2.3
															c-3.1-2-2.8-7.8-2.8-10.8c0.1-3.7-0.4-9.9-1.5-22.5c-1.2-13.7-3.5-13.6-2.3-19.3c1.5-6.4,6.5-14.9,15-16.8
															c7.2-1.6,13.6,2.3,15.5,3.5C674.3,426.2,677.9,428.9,678.3,430.6z"/>
														<path class="st18" d="M683.8,510.1c-1.5-0.5-3-1-4.5-1.5"/>
													</g>
													<g id="Layer_9">
														<path class="st19" d="M598.9,408c0.3-1.1,1.9-2.3,2.5-3.4c0.8-1.3,1.5-2.7,2-4.1c10.9-4.9,23.7-5.8,35.2-2.2c0,0.8,0.1,1.6,0.1,2.4
															c3.7,2.1,7.3,4.3,10.8,6.9c0.4,0.3,0.8,0.6,1.1,1.1c0.3,0.5,0.3,1.2,0.3,1.8c0,2.8,0,5.7-0.1,8.5c2.6,0,5.2,0,7.8,0
															c1-3.5,6.1-5.1,8.9-2.7c1.6,1.4,3.4,3.8,5.2,2.7c0.1,0.7,0.1,1.3,0.2,2c2.7,2.2,4.9,5,6.3,8.2c-3.6,0.5-7.3,0.1-10.7-1.4
															c-0.1,3-4.3,3.9-6,6.4c-0.7,1-0.9,2.3-1.5,3.4c-0.6,1.1-1.8,2.1-3,1.7c-0.6,3.1-2.9,5.8-5.8,6.8c-0.8,2.3-0.9,4.8-0.1,7.1
															c1.1,0.4,2.4,0.2,3.4-0.5c1.4,2.1,2.7,4.1,4.1,6.2c1.9,3,3.9,6,4.8,9.4c0.5,1.8,0.6,3.9-0.3,5.5c-0.9,1.7-2.6,2.7-4.3,3.6
															c-3.2,1.7-6.4,3.5-9.6,5.2c-0.2,3.5-1.8,6.9-4.4,9.2c-2.3-1.5-4.7-2.9-7-4.4c-2.4-1.5-4.9-3-7.7-3.4c-1.6-0.2-3.6-0.1-4.6-1.4
															c-0.5-0.6-0.6-1.4-1-2.1c-1.1-1.8-3.6-2.2-5.7-2.3c-0.2,1.3,0.2,2.6,0.1,3.9c-0.3,2.1-2.4,3.8-4.5,3.6c-2.1-0.1-4-2-4-4.2
															c0-1.7,0.8-3.6-0.2-4.9c-1.3-1.8-4.1-0.6-6.3-1c-0.7-1.2-1.1-2.5-1.4-3.9c-2.4-0.5-4.9,0.4-7.3,0.8c-2.4,0.4-5.4,0.1-6.7-1.9
															c-0.2,1.4-0.8,2.7-1.5,3.9c-2.9-2-6.9-2.3-10.1-0.7c-0.7,1.7-1.4,3.4-2.1,5.1c-0.2,0.5-0.4,1-0.9,1.3c-0.9,0.6-2.1,0.1-3-0.5
															c-2.1-1.3-4.3-2.6-6.4-3.9c-1.7-1-3.8-2.5-4.6-4.5c-0.5-1.5-0.2-3.4-0.2-5c0-2.7,0-5.4,0-8.2l2.9-14.1l0.3-3.9l5.5-6.6l13-7.1
															c0,0,8.1-4,9-4.9s8.6-7.9,8.6-7.9C599.5,412,598.4,409.4,598.9,408z"/>
													</g>
													<g id="Layer_8">
														<path class="st20" d="M544.5,409.9h2.5l0.9,1.5h1.9l1.7,2.5v2.8v1.5l-1.2,1.3l-2.3,1.6h-1.5h-3l-2,0.4l-1.3,1.8v2l-2.5,1.5l-1.5,3
															l-1.8,1.3l-1.2,1.3v2.3l-1.5,1.5l-1.8,2.5h-1.5h-2h-2.8v-2l-1.5-1.5l-2.8-0.5h-1.3v1.3l-3.3,0.3v1.3c0,0-1.5-0.5-1.5,1.3
															s0,2.8,0,2.8l-1.3,1.8l-1.3,1.3h-2.3v1.3v1.8h-3.5l-3,2h-1H500h-4h-1.3h-2c-1.5,1-1.5,1-1.5,1v0.8l-1.5,1.3l-1.5,2.3v2.8
															c0,0,1,0.8,0,1.5s0,2.5,0,2.5l-0.4,1.5c0,0,0.7,0,1.2,1.5s0.5,1.5,0.5,1.5l0,0l1.3,2l2.8-1.8l1.5-1.8h2.3h2h2l3-1l2.8-0.3l1.5-0.8
															l1.3-0.8l2.3-1.8l2.8-0.5h1.8l3.1-0.3l1.4,2.5l1.8,0.8l1.5,0.8l1,1.3l1.8,1.8h2.5l2,1.8l1.3,1.3l1.7,1.5h1.6l0.8,1.3l0.8,1.3
															l0.8,1.5l2.3,2h1.3h1.8h2.8h1.6l3.6-1l1.6-1.5v-2.8l-1.6-1.3l2.8-1.3h2l1.5-0.5l2.8-0.5l2,1l1.3-3l1.5-1l1.5-0.3l1.5-1.3v-3v-1.8
															v-1.8v-1.3v-1.5l2.3-1.5l1.5-1.8l3.3-1.5l1.5-0.8v-3.5l2.5-1.8v-2.3l1.5-0.8v-1.3l2-0.5v-1.5v-1.8v-2.3v-3v-2l2.3-1l4.8-1.8
															l3.8-2.3l3.7-1.5h3l1.3-0.4l1.3-1.8l1.8-1.5l1.5-3l1.5-1v-1.5v-2.3H606l-1.3-1.5v-1.6l1.5-2.7l-4.8,3.8l-2.3-1.1l-1,2.3l-3.3,2.8
															l-1.5,1.5l-3,1l-3.5-2.5l-2.5-3.8l-0.3-1.3l-1.4-2.5l0.4-6.2l-7.5-6.8l-18-3.3l-9.9,5l-5.4,4.8l-4.3,4.8l3.3,5.8L544.5,409.9z"/>
													</g>
													<g id="Layer_7">
														<path class="st21" d="M535,383.3v2h1.7v1.5v7.3l-0.8,1.1v0.9v1v0.8c0,0-0.7,0.2-0.8,0.5c-0.2,0.3-0.6,0.9-0.6,0.9v0.8v1.3v1.3v0.7
															l0.5,0.6c0,0,0.6,0.4,0.6,0.6c0,0.2,0.4,0.8,0.4,0.8l0.3,0.8c0,0,0.8,0.2,1.1,0.4s-0.2,0.2,0.3,0.3c0.4,0.1,1.6,0,1.6,0l0.6,0
															c0,0,0.1-0.3,0.5,0s1.8,0,1.8,0c0.2-0.4,0-1,0-1l0.1-1.6l0.3-0.3l0.8-0.7l0.6-0.4l0.7-0.8l0.6-0.5l0.7-0.5l0.4-0.5l0.5-0.4h1.3
															l1.2-0.1h0.5l0.8-0.1l0.6-0.1h0.5l0.6-0.1c0,0,0.1-0.1,0.5-0.5c0.4-0.4,0.9-0.8,0.9-0.8l0.7-0.3l0.9-0.6l0.8-0.3l1.3-0.7l1.8-0.7
															l2.2-0.4l2.5-0.4h0.7h0.8c0,0,0.8,0.2,1.1,0.4c0.3,0.2,0.8-0.2,1.9,0.4s1.8,0.8,1.8,0.8l2.3,1l0.5,0.3c0,0,0.3-0.1,0.9,0.5
															c0.7,0.6,2.3,1.6,2.3,1.6l1,0.7c0,0,0.3,0.1,0.6,0.3c0.3,0.2,1,0.8,1,0.8l0.7,1l0.4,0.3l0.7,0.1l0.9,0.5l0.8,0.3l0.8,0.4l1.8,0.2
															l1.3-0.8l0.6-1.7v-0.5l0.3-0.7l0.5-1.1l0.8-1.2l0.7-1.1l0.5-0.8l0.3-0.4l1.7-1.2l0.7-0.5l2.9-0.8l3.3-1.8l0.7-0.5l0.8-0.7l0.8-1.4
															l1.5-1.4l1.2-0.8l1.5-0.1l0.5-0.7l1.3-0.9l0.6-1l0.3-0.8l0.6-1.3l0.4-0.8l0.5-1.2l1-1.3h2.5l0.7-0.4l0.6-1.3v-1v-0.9l-1-0.8
															l-0.5-0.6l-2.8-2.7c0,0-11.7-3.5-12-3.8c-0.3-0.3-14.3-5.4-14.3-5.4l-8.9-1.3l-12,0.8l-16.1,4.1l-10.1,8.1l-1.3,5.8L535,383.3z"/>
													</g>
													<g id="Layer_6">
														<path class="st22" d="M513.7,349c0,0.2,0.1,0.3,0.1,0.5c0.3,1.2,0.1,3.2,1.1,4c0.4,0.2,0.7,0.6,0.6,1.1c0.6,1.2,1,2.5,1,3.9
															c1.3,1.1,2.6,2.2,4.2,2.6c0.6,0.2,1.3,0.3,1.9,0.5c1.1,0.3,2.1,0.9,3.1,1.4c0.3,0.2,0.6,0.3,0.7,0.6c0.1,0.2,0.1,0.5,0.2,0.7
															c0.3,1,1.2,1.2,1.3,2.3c0,0.3,0,0.6-0.2,0.9c-0.1,0.1-0.2,0.1-0.2,0.2c0,0.1,0,0.1,0,0.2c0,0.7,0,1.4-0.3,2
															c-0.2,0.5-0.6,0.9-0.9,1.4c-0.2,0.5-0.1,1-0.2,1.5c-0.1,0.5-0.6,0.9-0.7,1.4c0,0.3,0,0.5,0.1,0.8c0.3,1.6-0.2,3.2-0.1,4.8
															c0,0.3,0,0.6,0.1,0.9c0.1,0.3,0.3,0.5,0.5,0.6c0.5,0.3,1.1,0,1.6,0.1c0.4,0.1,0.8,0.3,1.2,0.4c0.4,0,0.8-0.1,1.1,0.1
															c0.3,0.1,0.5,0.3,0.7,0.4c0.3,0.1,0.6,0.2,0.9,0.1c0.2,0,0.5-0.1,0.7,0c0.2,0.1,0.2,0.3,0.3,0.5c0.3,0.5,0.9,0.5,1.4,0.5
															c1.2,0,2.4,0.1,3.4-0.5c0.2-0.1,0.5-0.4,0.4-0.6c0.5-0.2,1-0.4,1.4-0.6c0-0.3,0.2-0.6,0.4-0.8c0.5-0.6,1-1.2,1.4-1.9
															c-0.1,0-0.1,0.1,0,0.1s0.1-0.1,0.1-0.1c0.2-0.4,0.4-0.9,0.4-1.4c0.2,0,0.5,0,0.7-0.1c0.2-0.1,0.4-0.3,0.4-0.6
															c0.4-0.4,0.9-0.7,1.3-1.1c0.5,0.8,0.8,1.8,0.7,2.8c0.4,0.3,1,0.3,1.4,0.1c0.5-0.2,0.9-0.5,1.2-0.8c-0.2,1.2,0.2,2.4,0.2,3.6
															c0.5,0.2,1,0.5,1.5,0.8c0.4,0.2,0.8,0.3,1.2,0.2c0.4-0.1,0.6-0.5,0.7-0.8c0-0.3,0-0.6,0-0.9c0.4,0.1,0.8,0,1.1-0.2
															c0.1,0,0.1-0.1,0.2-0.1c0.1,0,0.2,0,0.2,0c0.2,0,0.3,0,0.5-0.1c0.6-0.2,0.9-0.8,1.4-1.2c0.2-0.2,0.5-0.3,0.8-0.5
															c0.6-0.3,1.2-0.7,1.9-1c0.1-0.1,0.3-0.1,0.4-0.2c0.1,0,0.3,0,0.4,0c0.6,0,1.2,0,1.9,0c0.1-0.4,0.5-0.7,0.9-1c0.3-0.2,0.6-0.3,1-0.4
															c0.3,0,0.7,0,0.9-0.2c0.2-0.2,0.3-0.4,0.3-0.6c0-0.1,0-0.2,0-0.3c0-0.1,0.1-0.1,0.1-0.1c0.3-0.3,0.6-0.5,0.9-0.8
															c0.1-0.1,0.1-0.1,0.2-0.2c0.1,0,0.2,0,0.2,0c0.7,0,2.1,0.4,2.1,0c0.1-0.4-0.6-2.8-0.9-4.1c-0.1-0.4,0.5-1,0.7-1.3
															c0.4-0.5,0.8-1,1.2-1.6c1.1-1.4,2.1-2.8,3.2-4.2c1.1-1.4,2.1-2.8,3.2-4.2c0.6-0.8,1.2-1.5,1.8-2.3c0,0,0-0.1,0.1-0.1
															c0,0,18.3-3.8,17.8-5.5s-6-28.5-6-28.5l-22.5-2.3c0,0-26.3,0-26.3,0c-3.4,0.6-6.8,1.2-10.2,1.7c-4.4,0.7-8.9,1.5-13.3,2.3
															c-4.3,0.7-8.7,1.4-13,2.2c0.3,1.3,0.5,2.7,0.8,4c0.3,1.4,0.4,2.9,0.8,4.2c0,0.2,0.1,0.4,0.2,0.5c0.1,0.1,0.2,0.2,0.3,0.3
															c2.8,2.8,5.6,5.6,8.4,8.4c0.1,0.1,0.2,0.2,0.2,0.3c0.1,0.1,0.1,0.3,0.1,0.4C513.2,345.9,513.3,347.5,513.7,349z"/>
													</g>
													<g id="Layer_5">
														<path class="st23" d="M465,268.9c-1-0.3-2.3-0.7-4-1c-2.3-0.4-4.4-0.8-6.5-0.5c-0.8,0.1-1.9,0.4-7.5,4c-5,3.2-5,3.6-6.5,4
															c-2,0.5-2.5,0-8.5-0.5c-4.7-0.4-4.7-0.1-8.5-0.5c-3.4-0.4-3.4-0.6-7-1c-3.2-0.3-3.3-0.1-7-0.5c-4.5-0.4-4.5-0.7-6-0.5
															c-2.9,0.4-6,2-6,2l0,0c-1.5,2.8-3,5.7-4.5,8.5l0,0c-2.3,9-2.4,11.4-2,11.5c0.6,0.2,2.9-3.7,2.5-4c-0.5-0.4-7.1,5.3-6,9
															c0.4,1.3,1.4,1.4,5.5,4c5,3.2,7.2,5.3,7.5,5c0.4-0.4-1.9-3.8-2.5-3.5c-1,0.4,0.6,9.8,6.5,16.5c1.6,1.9,3.5,3.5,3.5,3.5
															c0,0-2.1-1.3-3.4-3.5c-1.6-2.5,2,4.8,3.4,3.5c1.9-1.6,7.1-5.4,12.8-4.9c9.1,0.8,14.7,0.4,14.7,0.4c0,0-1.5,0-3.5,0
															c-2.4,0-2.8,0.1-4,0c-1.9-0.1-3.5-0.4-3.5-0.5c0-0.1,3.7,0.3,17.5,2c3.5,2.5,7,5,10.5,7.5l0,0c-3.6-4.5-4.5-5.5-4.5-5.5
															c-0.1,0.1-1.8,6.8,7.5,11.5c3.7,1.9,13.1,4.1,15,4c4.1-0.3,6.9-2.7,8.5-4c3.4-2.9,5.2-6.3,6.5-9.5c3-7.3,8.2-19.7,3.5-34
															c-0.9-2.8-2.7-7-6-11.5"/>
													</g>
													<g id="Layer_4">
														<path class="st24" d="M507.5,274.4c-0.8-0.4-1.8-0.5-2.8-0.6c-9.5-0.7-19.6,2.4-28.4-1.1c-2.7-1.1-5.7-2.8-8.4-1.7
															c0.4,5.1,0.8,10.3-0.1,15.4c-0.8,4.5-2.1,8.9-4.2,12.9c1.3-2.6,6.1,0.6,7.1,1.9c1.6,2.3,2,5.2,2.2,8c0.4,4,0.6,8.4-2.1,11.3
															c-0.9,1-2.2,1.9-2.4,3.2c2.2,0.2,2.8,3.1,2.6,5.3s-0.6,4.8,1.1,6.1c-3.3,0.2-6.5,0.9-9.6,2.2c-0.7,0.3,0.4,4.6,0.6,5.2
															c0.5,1.7,1.6,3.9,3,5c2.8,2.1,9.6,1,12.8,0.1c1.7-0.5,3.3-1.2,5.1-1.7c8.4-2.3,17.8,1.8,26-1.3c0.2-0.1,1.9,4.4,4.2,3.6
															c0.1,0,0.2-0.1,0.3-0.2c0.1-0.1,0.1-0.3,0.1-0.4c0-0.9-1.9-9.6-2.7-8.9c4.6-4,11.9-6.2,17.7-7.9c0.3-0.1,0.7-0.2,1-0.1
															c0.3,0.1,0.6,0.3,0.8,0.5c1.3,1,3,1.2,4.6,1.3c3.6,0.3,7.3,0.6,11,0.7c1.5,0.1,3,0.1,4.3-0.4c1.7-0.6,1.8-1.7,2.8-2.9
															c1-1.3,2.4-1.6,3.9-1.9c10.3-2,20.3-5.6,29.4-10.8c-11.4-13-22.8-25.9-34.1-38.9c-0.6-0.7-1.2-1.3-2-1.7c-0.8-0.4-1.7-0.3-2.6-0.3
															c-11.7,0.3-23.4,0.6-35.1,0.9c-1.1,0-2.2,0-3.1-0.5c-0.9-0.5-1.4-1.4-2.3-2C508,274.7,507.7,274.6,507.5,274.4z"/>
													</g>
													<g id="Layer_3">
														<path class="st25" d="M569.6,314.5c-4.4-0.7-8.7-2.1-12.9-3.7c-1.5-0.6-3-1.2-4.6-1.6c-4-0.9-8.1-0.2-12.2-0.3
															c-2.4,0-2.2-0.4-3.6-2c-1.1-1.3-2.6-2.1-4.1-2.7c-2.2-0.7-4.4-0.8-6.7-1c-0.1,0-0.3,0-0.4-0.2c-0.1-0.1-0.1-0.2-0.1-0.4
															c0.1-0.7,0.2-1.4,0-2c-0.6-2-3.6-0.9-5.1-0.9c-0.3,0-0.6,0-0.8-0.2c-0.4-0.3-0.2-0.9-0.2-1.4c0.1-1-2.9-1.7-3.6-2.5
															c-0.9-1-1.2-4.3-2.6-4.5c-0.4-0.1-0.9,0-1.3,0c-0.1,0-0.3,0-0.4-0.1c-0.1-0.1-0.1-0.3-0.1-0.4c0-0.7,0.1-9-0.2-9
															c-0.6,0.1-1.2,0.1-1.8,0.1c-0.2,0-0.3,0-0.5-0.1c-0.2-0.2-0.2-0.4-0.1-0.7c0.1-0.7,0.3-1.4,0.1-2c-0.7-2.7-6.4-0.6-8.2-0.6
															c-0.3,0-0.5,0-0.7-0.2c-0.1-0.1-0.2-0.3-0.2-0.5c-0.2-1.3-0.4-3.8,1.1-4.3c0.9-0.3,2.5,0,3.5,0c0,0,0-3,0-3
															c1.2-1.5,2.1-4.1,4.4-4.2c0.5,0,1,0.1,1.6,0c1.5-0.2,1.1-2,1.8-3c2.1-3.2,7.2-1.4,10.3-1.4h3h3.5c0,0,6,0,6,0
															c1.8,0,3.7-0.6,5.4-0.1c2.4,0.6,2.2,3.1,4.1,4.1c0,0,3,1.5,3,1.5l4.5,3l7,2l3.5-2l3-8.5l-0.5-3.5v-3c0,0,0-2.5,0-2.5
															c1.8-1.8,3.9-3.8,6.6-2.7c1,0.4,2,0.9,2.7,1.8c1.1,1.3,0.3,2.7,1.2,3.7c0.5,0.7,1.8,1.2,2.5,1.7c0.8,0.5,2.2,0.3,3.2,0.9
															c1.2,0.8,2,2.2,2.8,3.4c2.9,4,5.7,8,8.5,12c0.5,0.8,1.1,1.5,1.3,2.4c0.2,0.8,0.2,1.5,0.2,2.3c0,5.6,0,11.1,0,16.7
															c0,0.6,0,1.2-0.2,1.7c-0.2,0.7-0.8,1.2-1.3,1.7c-1.9,1.9-3.7,3.8-5.6,5.6c-1.5,1.5-3.1,3.1-4.3,4.9c-0.6,0.9-1.2,1.9-1.5,2.9
															c-0.3,1.1,0,2.3-1.2,2.8c-0.6,0.3-1.3,0.2-2,0.2C574.8,314.9,572.2,315,569.6,314.5z"/>
													</g>
													<g id="Layer_2">
														<path class="st26" d="M610,377.2C610,377.2,610,377.2,610,377.2c-0.2,0-0.4-0.2-0.5-0.3c-0.6-0.5-1.2-0.9-1.8-1.4
															c-0.5-0.4-1.5-2-1.7-1.4c-0.2,0.5,0,0.2,0,0.3c0,0.6,0.1,1.1,0.2,1.7c0,0.4,0.1,1-0.3,1.2c-3.4,1.5-6.9-1.4-9.9-2.7
															c-1.5-0.7-4.6-1.9-5.7,0c-0.2,0.3-0.3,0.5-0.5,0.8c0,0.1-0.1,0.2-0.2,0.2c-0.1,0.1-0.2,0.1-0.3,0c-0.7,0-1.4,0.1-2,0.3
															c-1.3,0.4-3.6,2.1-4,1.5s0-2.7,0-3.5s-1.9,0.4-2.3,0s0-2,0-2c0-0.1-0.9-0.6-1-0.7c-0.5-0.4-1.1-0.7-1.6-1.1
															c-0.1-0.1-0.2-0.2-0.4-0.2c-0.2-0.1-0.3-0.1-0.5-0.1c-1.1,0-2.3,0-3.4,0c0,0-0.1,0-0.1,0c0,0,0,0,0-0.1c0-1.2,0-2.5,0-3.7
															c0-0.1,0-0.2,0-0.3c-0.2-0.6-1.2-0.9-1.7-1.1c-0.4-0.2-0.9-0.5-1.3-0.7c-0.3-0.2-0.9-0.7-1.3-0.5c-0.1,0-0.1,0.1-0.1,0.2
															c-0.4,0.8-0.8,1.6-1.3,2.4c-0.5,0.8-1.1,1.7-1.8,2.4c-1.3,1.4-3.1,2-5,2c-0.1,0-0.1,0-0.2-0.1c0,0,0-0.1,0-0.1c0-3.2,0-6.4,0-9.6
															c0-0.7,0.9-0.6,1.4-0.7c0.5-0.2,1-0.3,1.5-0.5c1-0.4,1.9-0.8,2.8-1.3c1.8-1,3.5-2.3,4.8-3.9c0,0,0,0,0,0c0.1-0.1,0.2-0.2,0.3-0.3
															c2.6-3.4,3.3-8.4,1.1-12.1c-1.1-1.8-2.9-3.3-3.6-5.3c-0.7-2.2-0.3-4.9-2-6.4c-0.9-0.8-2.2-0.9-3.5-1c-4.3-0.3-8.5-0.3-12.8-0.2
															c0,0-0.1,0-0.1,0c0,0,0-0.1,0-0.1c0-0.6,0-1.3,0-1.9c0-0.7,0-1.5,0-2.2c0-0.7,0-1.4,0-2.2c0-0.2-0.1-2.1,0-2.2
															c3.7-1.2,7.8-2.7,9.6-6.2c1.5-3,0.9-6.8,2.9-9.5c1.4-1.8,3.6-2.6,5.7-3.4c3.6-1.3,7.2-2.5,10.9-3.8c3.8-4.6,3.6-11.3,3.1-17.3
															c-0.7-8.1-1.8-16.2-3.2-24.3c4.3-0.3,8-3,11.4-5.7c2.4-1.9,4.8-3.7,7.2-5.6c1.5-1.1,2.9-2.3,3.9-3.9c1.2-1.9,1.6-4.5,3.5-5.7
															c2.7-1.7,6.2,0.6,8.6,2.8c0.9,0.8,1.8,1.7,2.2,2.8c0.3,0.9,0.3,1.8,0.3,2.7c-0.1,6.7-0.1,13.4-0.2,20c0,1.8,0,3.7,0.8,5.3
															c0.5,1,1.3,1.8,2,2.7c4.4,6.1,1.2,14.6,2.4,22.1c4.1,2.1,5.1,7.5,7.9,11.1c0.9,1.2,2.1,2.2,3,3.4c1.3,1.6,2,3.6,2.3,5.6
															c0.2,1.3,0.5,2.9,0.1,4.2c-0.6,2-2.7,1.2-4.3,1.3c-2,0.2-3.9,0.6-5.8,1.2c-2.2,4.9-4.5,10.2-3.5,15.5c0.4,2.4,1.6,4.6,1.7,7.1
															c0.1,2.8-1.8,4.4-3.4,6.4c-3.5,4.7-6.1,10-7.4,15.7c-0.4,1.6-0.7,3.3-0.9,5c-0.2,1.3-0.4,2.6-0.8,3.9c-0.2,0.5-0.3,1-0.5,1.6
															C610.9,375.7,610.8,377.3,610,377.2z"/>
													</g>
												</svg>